<svg width="504" height="354" viewBox="0 0 504 354" fill="none" xmlns="http://www.w3.org/2000/svg">
<path d="M141.458 148.988L70.9657 123.03L99.638 176.882L19.8571 194.074L108.141 229.45L43.2696 277.078L131.02 259.578L90.7042 327.586L176.219 272.228L194.335 316.777L227.032 257.895L260.565 298.096L279.102 243.208L336.653 276.635L350.206 212.905L432.013 236.293L387.811 195.866L474.52 177.84L394.739 137.239L459.708 75.3199L391.996 94.4189L392.647 36.8593L348.619 74.8111L327.212 37.2552L274.028 106.824L221.153 61.2948L198.674 123.739L155.168 85.7825L141.458 148.988Z" fill="#F2F597" stroke="black" stroke-width="2"/>
<path d="M234.219 138.83C235.132 144.701 235.196 160.984 237.338 166.589C238.262 169.006 238.877 171.871 240.139 174.125C241.498 176.551 248.567 170.243 249.218 169.789C256.256 164.877 263.307 160.03 270.482 155.327" stroke="#492E87" stroke-width="6.32951" stroke-linecap="round"/>
<path d="M263.305 173.681C261.155 161.99 258.892 149.912 259.083 137.989C259.09 137.562 259.01 135.135 259.439 134.49C259.99 133.662 260.332 136.292 260.721 137.219C264.677 146.631 270.59 155.138 273.164 165.128" stroke="#492E87" stroke-width="6.32951" stroke-linecap="round"/>
<path d="M284.394 160.158C283.391 153.614 284.015 147.254 282.66 136.675C282.612 123.876 280.656 129.569 278.15 131.371C274.277 134.157 267.691 138.142 270.6 135.693C277.222 130.118 287.19 124.561 297.728 121.588" stroke="#492E87" stroke-width="6.32951" stroke-linecap="round"/>
<path d="M294.353 134.152C294.851 138.102 294.247 142.521 295.626 146.307C296.208 147.903 297.336 149.063 297.961 150.575C298.199 151.151 298.668 153.639 299.512 153.152C302.734 151.294 305.569 148.047 308.432 145.719C312.852 142.123 317.426 138.749 322.038 135.408" stroke="#492E87" stroke-width="6.32951" stroke-linecap="round"/>
<path d="M296.47 147.966C299.608 141.941 305.056 137.314 309.82 132.566" stroke="#492E87" stroke-width="6.32951" stroke-linecap="round"/>
<path d="M294.588 135.687C300.622 129.404 307.612 123.439 315.229 119.17" stroke="#492E87" stroke-width="6.32951" stroke-linecap="round"/>
<path d="M336.511 111.693C331.06 113.802 325.697 118.624 323.012 123.843C322.251 125.32 322.987 125.346 324.4 125.07C330.571 123.867 336.643 121.982 342.655 120.178C343.743 119.851 352.85 115.976 354.155 117.193C355.021 118.001 346.01 126.404 345.668 126.742C338.984 133.343 331.492 140.318 327.28 148.849" stroke="#492E87" stroke-width="6.32951" stroke-linecap="round"/>
<path d="M347.208 108.073C355.207 104.16 363.646 100.795 371.447 96.5245C372.593 95.8973 373.266 94.6529 374.577 94.452" stroke="#492E87" stroke-width="6.32951" stroke-linecap="round"/>
<path d="M363.622 102.415C363.311 108.44 363.864 114.247 364.776 120.196C365.075 122.143 364.925 125.187 366.183 126.81C366.669 127.438 367.35 129.304 367.473 130.103" stroke="#492E87" stroke-width="6.32951" stroke-linecap="round"/>
<path d="M246.994 196.573C255.14 191.744 263.003 186.362 271.477 182.111C273.766 180.963 276.112 179.924 278.425 178.827C279.488 178.322 279.947 178.272 279.738 179.708C279.021 184.614 274.82 189.161 271.351 192.337C267.132 196.199 262.456 199.571 258.147 203.343C255.225 205.9 264.378 198.618 267.887 196.956C270.93 195.514 274.186 194.61 277.461 193.881C278.611 193.625 281.132 192.79 282.418 193.335C284.385 194.169 277.527 202.005 277.315 202.222C270.355 209.349 261.705 213.612 252.523 217.097" stroke="#492E87" stroke-width="6.32951" stroke-linecap="round"/>
<path d="M250.079 223.262C250.279 215.021 254.131 206.808 256.136 198.851C257.121 194.944 258.12 190.942 258.774 186.993" stroke="#492E87" stroke-width="6.32951" stroke-linecap="round"/>
<path d="M294.646 173.92C292.482 179.517 291.304 185.641 290.643 191.6C290.38 193.977 291.086 197.122 290.422 199.376C290.23 200.031 289.948 200.604 289.814 201.281C289.463 203.061 292.367 199.797 292.543 199.656C294.162 198.352 308.933 186.191 309.225 186.449" stroke="#492E87" stroke-width="6.32951" stroke-linecap="round"/>
<path d="M328.741 163.467C324.751 165.166 322.407 167.757 319.297 170.789C317.056 172.974 316.272 176.916 316.101 180.146C316.066 180.808 315.741 183.389 316.676 183.687C317.546 183.964 320.368 184.554 321.172 184.235C325.606 182.984 328.334 182.325 331.325 181.371C335.909 179.91 337.864 178.847 341.055 175.064C342.287 173.604 343.497 168.944 342.858 166.885C341.449 162.349 338.673 161.762 335.627 161.649C332.849 162.34 330.161 161.845 328.012 163.797" stroke="#492E87" stroke-width="6.32951" stroke-linecap="round"/>
<path d="M373.952 149.362C367.616 150.447 362.029 154.563 357.921 159.483C355.648 162.206 353.237 164.949 352.05 168.339C351.607 169.606 350.687 172.307 351.651 173.591C352.643 174.911 354.737 174.904 356.172 174.861C361.378 174.703 366.53 172.916 371.482 171.446C374.748 170.478 378.643 169.141 380.207 165.791C380.559 165.037 380.981 162.798 379.823 162.475C374.465 160.979 367.523 163.741 363.339 166.925C361.787 168.107 362.676 166.991 363.491 166.209C366.484 163.333 370.649 162.327 374.345 160.676C377.069 159.459 380.125 158.619 382.69 157.107C384.056 156.303 383.96 157.702 384.081 158.927C384.558 163.74 384.706 168.602 385.008 173.43" stroke="#492E87" stroke-width="6.32951" stroke-linecap="round"/>
<path d="M145.739 171.681L165.337 167.52L176.52 147.675L181.796 144.42L185.311 144.802L188.49 155.814L189.6 168.243L192.909 170.517L202.411 176.199L214.27 187.882L221.503 199.335L223.031 210.441L218.43 220.061L191.064 240.334L170.961 246.628L148.319 246.082L133.804 241.222L124.843 235.598L117.979 228.288L116.657 215.289L120.829 202.067L119.783 178.979L118.455 163.518L120.852 161.591L127.881 162.354L145.739 171.681Z" fill="white"/>
<path d="M128.077 203.934C128.8 203.299 129.171 202.38 129.749 201.624C130.748 200.317 131.903 199.248 133.095 198.127C136.368 195.049 140.049 192.823 144.101 190.917C146.291 189.887 148.542 188.471 151.005 188.421C152.2 188.397 153.345 188.518 154.534 188.647" stroke="black" stroke-width="4" stroke-linecap="round"/>
<path d="M154.534 188.647C156.918 186.929 158.9 185.701 161.826 185.491" stroke="black" stroke-width="4" stroke-linecap="round"/>
<path d="M161.827 185.491C162.263 184.603 163.894 183.77 164.642 183.165C165.986 182.075 167.139 181.159 168.698 180.394C171.79 178.877 174.546 177.336 177.952 176.627C181.393 175.911 184.638 175.157 188.174 175.088C190.24 175.048 192.3 175.118 194.364 174.971C195.069 174.921 195.756 174.807 196.462 174.883" stroke="black" stroke-width="4" stroke-linecap="round"/>
<path d="M129.414 204.711C129.263 206.104 129.342 207.724 129.973 209.009C130.615 210.316 131.147 211.65 132.35 212.575C134.758 214.43 137.724 214.433 140.544 215.002C143.749 215.648 146.891 214.484 149.921 213.573C152.525 212.79 154.076 210.972 155.685 208.9C156.978 207.235 158.509 205.701 159.41 203.768C160.139 202.204 160.275 200.387 160.384 198.68C160.512 196.682 160.29 194.61 159.526 192.769C158.864 191.172 157.797 189.901 156.927 188.433" stroke="black" stroke-width="4" stroke-linecap="round"/>
<path d="M163.526 185.834C164.12 188.226 164.886 190.193 166.307 192.216C166.909 193.074 167.405 193.934 167.898 194.855C168.432 195.854 169.215 196.688 169.843 197.628C171.609 200.275 175.218 200.61 178.122 200.651C179.744 200.675 181.332 200.403 182.809 199.748C183.841 199.291 185.289 198.719 186.075 197.866C186.92 196.95 187.806 195.798 188.394 194.696C188.947 193.662 188.937 192.508 189.209 191.398C189.698 189.395 190.111 187.31 189.869 185.24C189.599 182.92 188.561 180.852 187.507 178.806C186.976 177.777 185.924 176.427 185.678 175.291" stroke="black" stroke-width="4" stroke-linecap="round"/>
<path d="M127.731 204.211C125.47 203.756 123.608 202.468 121.915 201.052" stroke="black" stroke-width="4" stroke-linecap="round"/>
<path d="M124.004 187.412C123.288 187.032 119.693 202.605 119.276 204.596C117.793 211.671 116.338 218.423 118.333 225.508C122.002 238.538 140.532 244.646 153.432 245.839C166.882 247.083 179.796 246.232 191.699 239.429C197.578 236.069 202.449 231.322 208.262 228.064C219.123 221.978 225.595 211.858 221.281 200.239C218.64 193.125 212.136 185.146 206.08 180.268C203.239 177.979 200.489 175.46 197.324 173.584C195.36 172.421 192.695 169.763 190.52 169.234" stroke="black" stroke-width="3.26287" stroke-linecap="round"/>
<path d="M124.004 187.412C123.214 188.666 123.261 186.148 122.897 185.111C121.709 181.733 120.175 177.748 119.404 174.267C118.564 170.476 117.807 166.428 119.131 162.665C119.95 160.341 127.212 161.621 128.775 162.337C132.646 164.113 136.161 165.956 139.751 168.173C141.186 169.058 142.784 170.653 144.418 171.166C146.283 171.751 147.379 171.465 149.464 171.046C151.708 170.595 153.693 169.393 156.021 168.926C158.028 168.523 160.215 168.485 162.098 168.107C164.685 167.588 165.14 167.636 166.324 165.45C167.826 162.676 168.361 159.646 170.413 156.992C173.2 153.388 175.078 148.584 178.689 145.683C179.977 144.649 181.822 143.217 183.577 144.3C185.571 145.531 187.436 149.584 187.857 151.681C188.956 157.156 187.552 163.026 188.632 168.408" stroke="black" stroke-width="3.26287" stroke-linecap="round"/>
<path d="M160.525 207.451C160.075 205.21 166.227 203.654 167.819 203.293C170.287 202.733 173.177 201.422 175.479 202.843C178.504 204.71 175.929 211.933 173.375 213.985C170.396 216.378 165.037 214.306 162.413 212.214C161.302 211.327 159.693 210.028 160.364 208.462C160.858 207.309 163.209 206.072 164.322 205.464" stroke="black" stroke-width="3.26287" stroke-linecap="round"/>
<path d="M165.661 206.908C162.46 206.206 165.326 213.652 168.302 210.922C170.055 209.313 168.111 206.303 166.223 205.789C163.86 205.145 164.724 209.266 165.183 210.187C166.27 212.37 168.927 211.025 168.059 208.984C167.364 207.35 163.986 205.885 163.462 208.438C163.152 209.948 164.457 212.541 165.881 210.183C166.738 208.765 164.845 204.92 163.255 206.684C161.279 208.878 164.336 211.768 166.66 211.741C168.915 211.715 169.716 209.291 168.645 207.697C168.323 207.217 167.749 206.851 167.528 207.649C167.17 208.945 167.713 210.515 168.489 211.564C170.628 214.452 171.39 209.918 170.81 208.323C169.8 205.541 168.546 208.052 168.775 209.793C169.062 211.979 171.431 212.726 171.894 210.092C171.948 209.782 171.192 204.818 170.387 205.633C169.591 206.439 170.289 208.36 171.315 208.657C172.765 209.078 173.546 207.234 173.582 206.161C173.62 204.989 172.269 203.863 171.796 205.54C171.345 207.14 172.92 208.35 173.933 206.608C174.386 205.829 173.601 203.539 172.869 204.645C172.293 205.515 173.802 207.644 174.037 206.832C174.272 206.018 173.055 203.438 172.01 204.572C171.702 204.906 170.842 207.995 171.666 207.797C172.979 207.483 171.732 204.938 170.795 204.762C169.118 204.448 168.907 206.848 169.359 207.771C169.625 208.312 171.214 209.554 171.593 208.302C171.739 207.817 171.551 206.289 171.047 206.017C170.515 205.731 171.446 209.529 171.661 209.948C172.886 212.328 174.581 207.58 173.107 207.427C172.496 207.363 172.853 209.017 173.268 209.244C173.652 209.455 173.706 208.816 173.884 208.685" stroke="black" stroke-width="3.26287" stroke-linecap="round"/>
<path d="M159.689 225.492C159.313 225.523 160.113 225.555 160.58 225.939C162.365 227.407 164.503 227.858 166.847 227.184C169.98 226.283 172.076 224.024 172.745 221.007C173.153 219.171 172.239 217.471 171.886 215.711C171.797 215.267 171.021 213.84 171.647 214.956C173.081 217.513 174.373 220.044 177.535 220.916C180.366 221.698 183.034 220.183 184.985 218.264C187.087 216.198 186.989 214.058 187.023 211.434" stroke="black" stroke-width="3.26287" stroke-linecap="round"/>
<path d="M199.419 160.015L199.696 160.186" stroke="black" stroke-width="3.26287" stroke-linecap="round"/>
<path d="M151.547 245.346C150.252 245.452 148.693 243.854 147.825 243.175C145.234 241.146 142.637 238.796 140.738 236.171C138.819 233.516 136.761 231.022 136.058 227.77C135.689 226.064 135.411 224.414 135.759 222.682C136.156 220.714 138.198 218.704 140.403 218.934C141.144 219.011 141.876 219.354 142.599 219.4C143.155 219.434 141.992 218.455 141.933 218.408C141.177 217.807 140.579 217.105 139.976 216.374C139.12 215.336 138.31 214.08 137.304 213.174C136.728 212.655 136.292 211.84 135.944 211.163C135.469 210.238 134.772 209.428 134.323 208.509C133.608 207.046 132.791 205.798 132.227 204.253C131.451 202.125 131.546 199.7 132.153 197.518C132.703 195.539 133.865 194.035 135.042 192.342C135.825 191.216 137.005 190.275 138.003 189.307C139.133 188.211 140.526 187.099 141.935 186.342C146.41 183.939 152.819 182.297 157.369 185.173C158.72 186.027 159.018 187.208 159.347 188.622C159.395 188.828 159.546 189.345 159.666 189.519C159.674 189.532 159.908 188.563 159.925 188.485C160.136 187.558 160.383 186.617 160.736 185.724C162.117 182.236 164.398 178.92 167.878 176.927C170.814 175.246 173.807 174.69 177.16 174.607C182.889 174.464 188.561 176.712 191.547 181.42C192.836 183.453 193.639 185.943 193.971 188.297C194.137 189.466 193.822 190.677 193.773 191.855C193.73 192.897 193.634 193.985 193.489 195.021C193.377 195.821 193.099 196.524 192.834 197.287C192.557 198.084 192.669 197.844 193.012 197.23C194.374 194.797 197.124 192.856 199.897 192.098C202.726 191.325 206.486 192.621 208.543 194.358C211.351 196.727 213.272 199.791 214.629 203.104C215.624 205.535 216.164 208.383 215.884 211.027C215.662 213.116 215.828 215.441 215.077 217.448C214.716 218.412 214.394 219.486 214.138 220.479C213.959 221.175 213.888 222.236 213.386 222.805C212.827 223.438 212.347 224.365 212.015 225.106" stroke="black" stroke-width="3.26287" stroke-linecap="round"/>
<path d="M169.264 185.573C170.238 185.872 172.112 184.101 172.791 183.676C173.663 183.131 175.179 181.641 173.178 182.86C172.392 183.339 171.393 183.675 170.68 184.232C169.947 184.805 171.32 184.495 171.541 184.39C171.872 184.232 173.292 183.083 173.151 183.113C172.038 183.354 171.255 184.339 170.553 185.102" stroke="black" stroke-width="3.26287" stroke-linecap="round"/>
<path d="M144.726 193.034C144.443 193.366 144.215 193.033 144.408 193.006C145.354 192.872 146.3 192.78 147.247 192.621C147.713 192.542 149.612 192.414 149.942 191.869C149.97 191.822 147.647 191.964 147.517 191.984C146.82 192.091 145.919 192.171 145.262 192.514C144.831 192.738 146.519 193.474 147.237 192.979" stroke="black" stroke-width="3.26287" stroke-linecap="round"/>
<path d="M118.602 184.269C118.492 183.931 117.995 182.993 117.621 182.893C115.312 182.277 115.471 190.761 115.548 191.774C115.683 193.575 115.764 196.031 116.847 197.564C118.864 200.42 121.168 193.686 121.298 192.722C121.657 190.06 121.25 185.873 119.39 183.708C116.925 180.838 116.083 189.273 116.097 189.927C116.116 190.833 116.47 198.312 118.642 197.825C122.321 197.001 121.059 186.721 120.331 184.689C119.922 183.547 118.977 182.444 118.012 184.058C116.6 186.419 116.593 190.015 117.017 192.558C117.107 193.099 117.874 196.217 119.334 194.542C120.682 192.995 120.934 190.275 121.023 188.426C121.062 187.608 120.561 180.569 117.901 183.313C115.495 185.795 115.327 191.156 116.419 194.067C118.112 198.579 121.19 191.981 121.467 190.348C121.704 188.951 121.097 177.461 117.085 181.977C114.215 185.208 114.405 191.464 115.542 195.157C117.13 200.318 119.628 192.728 119.872 191.18C120.072 189.921 120.286 182.037 116.926 185.867C114.938 188.133 112.652 195.656 115.838 197.803C118.49 199.591 123.482 185.523 117.772 184.033C114.109 183.078 115.014 195.981 115.123 197.362C115.173 198 115.231 202.528 117.336 202.146C118.722 201.894 119.663 200.005 120.147 198.986C121.7 195.716 122.368 191.811 121.918 188.301C121.743 186.935 120.874 182.877 118.572 183.141C114.095 183.656 113.533 196.642 116.8 198.597C118.93 199.872 120.905 196.608 121.622 195.216C123.488 191.595 124.002 187.156 122.841 183.344C122.287 181.526 120.851 179.827 118.928 181.699C115.847 184.698 115.92 190.348 117.028 193.981C118.052 197.338 120.808 198.222 123.001 194.866C125.016 191.783 125.032 187.448 124.416 184.07C124.174 182.745 123.182 178.749 120.71 180.336C117.948 182.108 117.3 188.1 117.414 190.832C117.485 192.519 118.573 197.658 121.475 197.019C124.349 196.386 123.246 189.025 123.067 187.394C122.997 186.755 122.03 179.828 119.9 182.637C116.924 186.561 116.417 193.531 117.822 197.935C118.625 200.45 120.752 200.849 122.472 198.665C124.298 196.346 124.743 193.088 124.831 190.331C124.905 188.037 124.38 185.618 122.373 184.133C119.264 181.833 116.974 187.275 116.518 189.294C115.809 192.436 115.25 197.181 117.199 199.998C118.786 202.293 121.824 201.584 123.25 199.423C125.297 196.322 125.437 191.63 124.874 188.201C124.503 185.947 122.985 180.379 119.964 179.937C117.216 179.535 115.733 184.187 115.285 185.885C114.136 190.246 114.083 195.501 115.373 199.779C116.149 202.351 118.392 204.479 120.877 201.837C124.281 198.217 124.914 192.259 124.82 187.737C124.76 184.885 124.079 181.173 121.146 179.681C118.335 178.251 116.296 181.824 115.5 183.831C113.915 187.826 113.783 192.474 115.195 196.452C116.262 199.457 119.238 201.606 121.549 197.973C123.736 194.536 124.596 189.591 123.869 185.734C123.529 183.928 121.734 177.239 118.733 177.606C115.422 178.012 113.785 184.779 113.251 187.062C112.539 190.103 110.827 197.893 114.398 199.994C117.115 201.591 119.884 197.039 120.76 195.407C122.599 191.984 123.689 186.991 121.001 183.732C118.79 181.053 116.438 185.695 116.003 187.313C115.385 189.614 115.537 192.05 116.413 194.233C117.293 196.424 118.388 196.423 119.915 197.826" stroke="black" stroke-width="3.26287" stroke-linecap="round"/>
<path d="M194.822 163.422C194.291 163.419 194.061 162.93 193.721 162.619C192.48 161.482 190.331 161.401 188.751 162.045C184.01 163.977 188.759 171.414 192.625 171.395C199.668 171.36 196.53 158.442 190.263 158.853C187.547 159.031 188.64 163.566 189.128 164.803C190.331 167.847 192.794 171.359 196.031 172.759C198.547 173.846 201.538 173.382 201.101 170.223C200.67 167.102 198.13 163.571 195.596 161.621C193.21 159.786 190.81 161.597 190.409 164.162C189.83 167.858 192.108 171.826 194.469 174.535C195.769 176.027 199.685 180.032 201.853 177.184C204.114 174.212 201.169 169.502 199.475 167.095C198.375 165.531 194.106 159.651 191.27 160.845C188.028 162.209 192.424 169.521 193.469 170.823C194.965 172.689 198.801 176.394 201.766 174.605C204.693 172.839 202.611 168.423 201.409 166.487C200.244 164.612 196.374 159.15 193.234 161.364C190.357 163.393 192.135 168.157 193.465 170.312C194.966 172.746 198.914 177.6 202.634 176.588C206.521 175.531 205.663 171.211 204.325 168.826C203.089 166.623 199.603 161.224 196.203 161.719C192.834 162.21 195.903 167.66 196.567 168.702C198.089 171.089 200.922 175.167 204.238 175.608C208.157 176.129 205.16 170.053 204.529 169.06C202.846 166.41 199.15 160.73 195.471 160.22C192.277 159.777 195.421 165.21 195.836 165.741C196.469 166.553 201.281 171.986 202.834 169.784C204.552 167.347 199.714 163.186 198.109 162.049C196.902 161.194 193.392 159.698 194.441 162.694C195.468 165.628 198.185 167.644 200.623 169.497" stroke="black" stroke-width="3.26287" stroke-linecap="round"/>
<path d="M122.057 183.626C121.007 183.593 122.463 179.644 122.6 179.312C124.672 174.305 128.284 168.71 133.033 165.554C138.19 162.127 146.646 161.179 152.708 161.457C156.339 161.624 159.88 162.383 163.481 162.75C167.32 163.14 171.192 163.194 175.004 163.782C178.673 164.347 181.852 165.665 185.343 166.715C187.085 167.239 189.079 167.525 190.686 168.366C191.133 168.6 191.515 168.902 191.895 169.22C192.627 169.831 190.685 167.757 189.935 167.164C186.576 164.506 182.439 163.014 178.331 161.633C172.013 159.508 165.471 157.791 158.627 158.075C145.765 158.609 133.538 164.247 125.04 173.52C121.939 176.904 119.433 180.711 117.38 184.711C116.633 186.167 115 189.206 117.601 186.202C125.48 177.105 132.549 168.654 144.326 163.78C156.781 158.625 171.621 157.833 184.362 161.83C187.895 162.938 189.922 164.877 192.218 167.418C193.119 168.415 190.639 165.261 189.812 164.209C186.84 160.428 183.191 157.434 178.302 156.026C169.22 153.411 156.155 153.381 147.175 156.81C136.852 160.751 130.41 169.283 125.169 178.065" stroke="black" stroke-width="3.26287" stroke-linecap="round"/>
<path d="M165.47 228.469C165.191 231.032 164.781 233.33 165.537 235.839C166.411 238.734 169.033 239.306 171.589 240.173C172.48 240.475 173.493 240.436 174.418 240.422C175.104 240.412 176.254 240.661 176.873 240.294C177.814 239.736 179.217 239.675 180.273 239.283C181.506 238.826 182.261 238.683 183.255 237.774C184.014 237.08 185.088 236.692 185.738 235.883C186.346 235.124 186.779 233.966 187.116 233.051C187.674 231.539 188.223 229.764 187.914 228.11C187.582 226.336 187.399 224.287 186.687 222.622C186.379 221.902 185.865 221.283 185.606 220.584" stroke="black" stroke-width="4" stroke-linecap="round"/>
<path d="M171.951 223.695C171.641 226.542 171.875 229.385 171.563 232.251C171.534 232.521 171.599 233.353 171.25 233.373C170.63 233.408 170.127 232.838 169.669 232.487C169.231 232.152 168.653 232.252 168.15 232.051C167.674 231.861 167.241 231.623 166.769 231.449" stroke="black" stroke-width="3" stroke-linecap="round"/>
<path d="M148.992 198.469C148.547 198.583 148.257 199.959 148.21 200.318C148.078 201.341 148.117 202.506 149.187 202.971C150.995 203.756 154.336 199.392 152.874 198.778C152.116 198.46 151.237 198.243 150.436 198.078C149.963 197.981 148.794 197.657 148.39 198.001C146.91 199.262 147.688 202.077 149.654 202.312C150.892 202.461 154.634 200.496 152.78 198.978C151.958 198.305 150.45 198.923 149.655 199.331C149.429 199.447 147.887 200.244 148.475 200.557C148.83 200.746 149.003 200.514 149.279 200.418C149.693 200.275 150.282 200.64 150.701 200.686C150.999 200.718 151.717 200.085 151.516 200.307C151.03 200.842 150.86 201.296 150.784 202" stroke="black" stroke-width="3" stroke-linecap="round"/>
<path d="M172.371 190.177C171.756 190.187 171.444 192.298 171.642 192.725C171.991 193.476 173.355 193.582 173.986 193.254C174.811 192.824 175.345 192.213 175.504 191.299C175.672 190.334 175.35 189.616 174.344 189.521C173.479 189.44 172.568 189.436 171.997 190.201C171.273 191.173 171.939 192.225 173.006 192.414C173.714 192.539 174.622 192.291 174.817 191.466C175.008 190.662 173.641 191.184 173.408 191.305" stroke="black" stroke-width="3" stroke-linecap="round"/>
<path d="M208.99 230.148L196.99 232.147L194.99 243.148L178.49 249.148L192.99 265.648L240.99 242.148L236.49 210.648L225.99 216.148L208.99 230.148Z" fill="white"/>
<path d="M193.756 262.014C194.747 252.672 195.452 243.204 196.88 233.911C197.142 232.204 196.953 231.76 198.405 231.677C202.544 231.44 206.568 230.842 210.324 228.937C214.066 227.039 217.049 223.952 219.938 220.983C222.162 218.698 224.66 217.047 227.045 214.992C229.069 213.247 231.541 212.291 234.012 211.356C237.822 209.915 237.007 211.825 237.688 215.698C239.367 225.247 241.764 234.107 240.576 243.846" stroke="black" stroke-width="4.13793" stroke-linecap="round"/>
<path d="M193.31 265.671C205.085 260.132 217.697 255.791 228.727 248.824C231.971 246.775 235.226 243.922 238.84 242.585" stroke="black" stroke-width="4.13793" stroke-linecap="round"/>
<path d="M191.652 264.908C188.392 261.721 185.454 258.438 182.634 254.865C182.17 254.276 178.31 250.533 178.645 249.803C179.606 247.714 185.922 246.969 187.875 246.436C190.277 245.78 191.984 244.649 193.828 243.046" stroke="black" stroke-width="4.13793" stroke-linecap="round"/>
<path d="M215.925 236.988C214.505 238.243 214.659 242.444 217.024 242.678C218.982 242.87 217.08 239.431 216.241 238.987" stroke="black" stroke-width="4.13793" stroke-linecap="round"/>
</svg>
